<svg xmlns="http://www.w3.org/2000/svg" viewBox="0 0 500 500"><g id="freepik--background-complete--inject-58"><path d="M416.15,313.15l13.35-.27,6.58-.12c2.19,0,4.36,0,6.55-.05l-.45.44L442.13,302l.5.49-13.24-.06c-4.42,0-8.83-.11-13.24-.16l.27-.27c0,1.83-.09,3.67-.13,5.53Zm0,0-.15-5.53c0-1.87-.11-3.76-.13-5.65v-.27h.28c4.41-.05,8.82-.16,13.24-.16l13.24-.06h.5V302l-.06,11.18v.45h-.44c-2.24,0-4.47,0-6.7-.05l-6.66-.12Z" style="fill:#ebebeb"></path><path d="M430.92,327.26l13.35-.27,6.58-.12c2.19,0,4.37,0,6.55-.05l-.45.44-.05-11.18.5.49-13.24-.06c-4.42,0-8.83-.11-13.24-.16l.27-.27c0,1.83-.09,3.67-.13,5.53Zm0,0-.14-5.53c0-1.87-.12-3.76-.14-5.65v-.27h.28c4.41-.05,8.82-.16,13.24-.16l13.24-.06h.5v.51l-.06,11.18v.45h-.44c-2.23,0-4.47,0-6.7,0l-6.66-.12Z" style="fill:#ebebeb"></path><path d="M182.85,341l13.35-.28,6.58-.11c2.19-.05,4.37,0,6.55-.06l-.45.45,0-11.19.5.5-13.24-.06c-4.41,0-8.83-.12-13.24-.17l.27-.27c0,1.83-.08,3.67-.13,5.54Zm0,0-.14-5.54c-.05-1.86-.12-3.75-.13-5.65v-.27h.28c4.41-.06,8.83-.16,13.24-.17l13.24-.06h.5v.5L209.77,341v.45h-.44c-2.23,0-4.47,0-6.7-.05l-6.66-.11Z" style="fill:#ebebeb"></path><path d="M197.62,355.11l13.36-.28,6.57-.11c2.19-.05,4.37,0,6.55-.06l-.45.45-.05-11.19.5.5-13.24-.06c-4.41,0-8.83-.12-13.24-.17l.27-.27c0,1.83-.08,3.67-.13,5.54Zm0,0-.14-5.54c0-1.86-.11-3.75-.13-5.65v-.27h.28c4.41-.06,8.83-.16,13.24-.17l13.24-.06h.5v.5l0,11.19v.45h-.44c-2.23,0-4.47,0-6.69-.05l-6.67-.11Z" style="fill:#ebebeb"></path><path d="M91.21,217.33l13.35-.27,6.58-.12c2.19,0,4.37,0,6.55-.05l-.45.44,0-11.19.5.5-13.24-.06c-4.42,0-8.83-.11-13.24-.16l.27-.28c0,1.84-.09,3.68-.13,5.54Zm0,0-.14-5.53c0-1.87-.12-3.76-.14-5.66v-.27h.28c4.41-.05,8.82-.16,13.24-.16l13.24-.07h.5v.5l-.06,11.19v.45h-.44c-2.23,0-4.47,0-6.7-.06l-6.66-.11Z" style="fill:#ebebeb"></path><path d="M105.92,203.22l13.36-.27,6.58-.12c2.18,0,4.36,0,6.54-.05l-.44.44L131.9,192l.5.5-13.24-.06c-4.41,0-8.83-.11-13.24-.16l.27-.28c0,1.84-.08,3.68-.13,5.54Zm0,0-.14-5.53c0-1.87-.11-3.76-.13-5.66v-.27h.27c4.41,0,8.83-.16,13.24-.16l13.24-.07h.5v.5l-.05,11.19v.45h-.44c-2.23,0-4.47,0-6.69-.06l-6.66-.11Z" style="fill:#ebebeb"></path><path d="M373.17,206.58l13.36-.28,6.58-.11c2.18-.05,4.36,0,6.54-.06l-.44.45-.06-11.19.5.5-13.24-.07c-4.41,0-8.82-.11-13.24-.16l.27-.27c0,1.83-.08,3.67-.13,5.53Zm0,0L373,201c0-1.87-.11-3.75-.13-5.65v-.27h.27c4.42-.05,8.83-.16,13.24-.16l13.24-.06h.5v.51l0,11.19V207h-.45c-2.23,0-4.47,0-6.69-.05l-6.66-.12Z" style="fill:#ebebeb"></path><path d="M387.94,191.5l13.36-.28,6.58-.11c2.19-.05,4.36,0,6.54-.06l-.44.45-.06-11.19.5.5-13.24-.07c-4.41,0-8.82-.11-13.24-.16l.28-.27c0,1.83-.09,3.67-.13,5.53Zm0,0L387.8,186c0-1.87-.11-3.75-.13-5.65V180h.27c4.42-.05,8.83-.15,13.24-.16l13.24-.06h.51v.5l-.05,11.19V192h-.45c-2.23,0-4.47,0-6.69-.05l-6.66-.11Z" style="fill:#ebebeb"></path><path d="M402.66,206.58,416,206.3l6.58-.11c2.19-.05,4.37,0,6.55-.06l-.45.45-.05-11.19.5.5-13.24-.07c-4.42,0-8.83-.11-13.24-.16l.27-.27c0,1.83-.09,3.67-.13,5.53Zm0,0-.15-5.54c0-1.87-.11-3.75-.13-5.65v-.27h.28c4.41-.05,8.82-.16,13.24-.16l13.24-.06h.5v.51l-.06,11.19V207h-.44c-2.23,0-4.47,0-6.7-.05l-6.66-.12Z" style="fill:#ebebeb"></path><path d="M42.6,332.53,56,332.25l6.58-.12c2.18,0,4.36,0,6.54-.05l-.44.44-.06-11.18.5.49-13.24-.06c-4.41,0-8.82-.11-13.24-.16l.27-.27c0,1.83-.08,3.67-.13,5.53Zm0,0L42.46,327c-.05-1.87-.11-3.76-.13-5.65v-.27h.27c4.42-.05,8.83-.16,13.24-.16l13.24-.06h.5v.51l0,11.18V333h-.45c-2.23,0-4.47,0-6.69-.05l-6.66-.12Z" style="fill:#ebebeb"></path><path d="M57.37,76.63l13.36-.27,6.58-.12c2.19,0,4.36,0,6.54,0l-.44.44-.06-11.19.5.5-13.24-.06c-4.41,0-8.82-.11-13.24-.16l.28-.28c0,1.84-.09,3.68-.13,5.54Zm0,0-.14-5.53c0-1.87-.11-3.76-.13-5.66v-.27h.27c4.42,0,8.83-.16,13.24-.16l13.24-.07h.51v.5l0,11.19v.45h-.45c-2.23,0-4.47,0-6.69-.06l-6.66-.11Z" style="fill:#ebebeb"></path><path d="M42.6,90.74,56,90.46l6.58-.11c2.18,0,4.36,0,6.54,0l-.44.44-.06-11.19.5.5L55.84,80c-4.41,0-8.82-.11-13.24-.16l.27-.28c0,1.84-.08,3.68-.13,5.54Zm0,0-.14-5.53c-.05-1.87-.11-3.76-.13-5.66v-.27h.27c4.42,0,8.83-.16,13.24-.16l13.24-.07h.5v.5l0,11.19v.45h-.45c-2.23,0-4.47,0-6.69-.06L55.73,91Z" style="fill:#ebebeb"></path><path d="M241.79,105.36l13.36-.28,6.58-.11c2.18,0,4.36,0,6.54-.06l-.44.45-.06-11.19.5.5L255,94.6c-4.41,0-8.83-.11-13.24-.16l.27-.27c0,1.83-.08,3.67-.13,5.53Zm0,0-.14-5.54c-.05-1.86-.11-3.75-.13-5.65V93.9h.28c4.41-.06,8.83-.16,13.24-.17l13.24-.06h.5v.5l0,11.19v.45h-.44c-2.23,0-4.47,0-6.69,0l-6.66-.11Z" style="fill:#ebebeb"></path><path d="M355,76.63l13.35-.27,6.58-.12c2.19,0,4.37,0,6.55,0l-.45.44L381,65.44l.5.5-13.24-.06c-4.41,0-8.83-.11-13.24-.16l.27-.28c0,1.84-.08,3.68-.13,5.54Zm0,0-.14-5.53c-.05-1.87-.12-3.76-.13-5.66v-.27H355c4.41,0,8.83-.16,13.24-.16l13.24-.07h.5v.5L382,76.63v.45h-.44c-2.23,0-4.47,0-6.7-.06l-6.66-.11Z" style="fill:#ebebeb"></path><polygon points="345.19 389.71 457.67 389.71 461.29 318.34 341.58 318.34 345.19 389.71" style="fill:#ebebeb"></polygon><path d="M449.48,351.07H350.31l-1.37-24.9H451.08Zm-98.22-1h97.28l1.47-22.9H350Z" style="fill:#dbdbdb"></path><path d="M448.14,379.58h-95L352,357.09h97.5Zm-94-1H447.2l1.28-20.49H353.09Z" style="fill:#dbdbdb"></path><path d="M411.34,341.37h-21.1l-.79-6.1h22.68Zm-20.22-1h19.34l.53-4.1h-20.4Z" style="fill:#dbdbdb"></path><path d="M411.34,371.38h-21.1l-.79-6.09h22.68Zm-20.22-1h19.34l.53-4.09h-20.4Z" style="fill:#dbdbdb"></path><polygon points="360.79 389.71 359.7 397.49 357.5 413.11 353.21 413.11 353.21 389.71 360.79 389.71" style="fill:#ebebeb"></polygon><polygon points="360.79 389.71 359.7 397.49 353.21 397.49 353.21 389.71 360.79 389.71" style="fill:#dbdbdb"></polygon><polygon points="442.07 389.71 443.16 397.49 445.36 413.11 449.65 413.11 449.65 389.71 442.07 389.71" style="fill:#ebebeb"></polygon><polygon points="442.07 389.71 443.16 397.49 449.65 397.49 449.65 389.71 442.07 389.71" style="fill:#dbdbdb"></polygon></g><g id="freepik--Floor--inject-58"><polygon points="40.29 413.11 92.72 412.87 145.14 412.78 250 412.61 354.86 412.78 407.28 412.86 459.71 413.11 407.28 413.35 354.86 413.44 250 413.61 145.14 413.44 92.72 413.35 40.29 413.11" style="fill:#263238"></polygon></g><g id="freepik--Letters--inject-58"><polygon points="78.47 56.73 51.24 56.73 49.54 98.3 85.03 96.37 78.47 56.73" style="fill:#dbdbdb"></polygon><polygon points="123.89 57.69 96.42 59.38 91.8 94.4 126.86 94.4 123.89 57.69" style="fill:#dbdbdb"></polygon><polygon points="168.65 56.95 134.56 58.64 134.56 95.61 170.11 95.61 168.65 56.95" style="fill:#dbdbdb"></polygon><polygon points="201.8 58.77 180.58 58.77 178.7 93.79 209.33 92.61 201.8 58.77" style="fill:#dbdbdb"></polygon><polygon points="49.08 258 47.38 299.57 82.87 297.64 76.31 258 49.08 258" style="fill:#dbdbdb"></polygon><polygon points="94.26 260.65 89.64 295.67 124.7 295.67 121.73 258.96 94.26 260.65" style="fill:#dbdbdb"></polygon><polygon points="132.4 259.91 132.4 296.88 167.96 296.88 166.49 258.22 132.4 259.91" style="fill:#dbdbdb"></polygon><polygon points="178.43 260.04 176.54 295.06 207.18 293.88 199.64 260.04 178.43 260.04" style="fill:#dbdbdb"></polygon><polygon points="241.84 93.94 238.44 60.1 214.37 61.33 217.29 91.96 241.84 93.94" style="fill:#dbdbdb"></polygon><polygon points="280.88 89.35 270.67 62.61 248.3 67.23 246.13 87.75 258.4 102.25 280.88 89.35" style="fill:#dbdbdb"></polygon><polygon points="308.23 58.28 287.87 58.28 285.27 97.91 312.97 90.86 308.23 58.28" style="fill:#dbdbdb"></polygon><polygon points="351.15 51.9 321.8 55.94 320.11 93.79 355.19 89.5 351.15 51.9" style="fill:#dbdbdb"></polygon><polygon points="359.22 56.45 359.22 88.55 377.21 94.62 375.54 55 359.22 56.45" style="fill:#dbdbdb"></polygon><polygon points="413.97 94.99 412.69 54.63 384.82 59.01 385.53 94.99 413.97 94.99" style="fill:#dbdbdb"></polygon><polygon points="449.97 86.5 437.32 54.16 419.77 55.86 420.97 95.25 444.86 100.6 449.97 86.5" style="fill:#dbdbdb"></polygon><polygon points="55.54 160.12 92.71 160.12 85.18 122.68 58.43 122.68 55.54 160.12" style="fill:#dbdbdb"></polygon><polygon points="455 255.45 428.26 255.45 425.36 292.89 462.54 292.89 455 255.45" style="fill:#dbdbdb"></polygon><polygon points="99.85 165.75 138.4 159.34 130.47 121.47 93.79 129.28 99.85 165.75" style="fill:#dbdbdb"></polygon><polygon points="371.57 126.89 333.45 126.89 341.17 165.28 368.6 165.28 371.57 126.89" style="fill:#dbdbdb"></polygon><polygon points="322.56 117.81 293.56 121.8 291.89 159.19 326.54 154.96 322.56 117.81" style="fill:#dbdbdb"></polygon><polygon points="288.16 120.05 259.58 124.54 260.3 161.44 289.46 161.44 288.16 120.05" style="fill:#dbdbdb"></polygon><polygon points="246.67 123.17 218.5 124.9 213.76 160.82 249.72 160.82 246.67 123.17" style="fill:#dbdbdb"></polygon><polygon points="307.23 190.21 279.76 191.9 275.14 226.92 310.21 226.92 307.23 190.21" style="fill:#dbdbdb"></polygon><polygon points="344.4 228.86 343.13 188.5 315.26 192.87 315.96 228.86 344.4 228.86" style="fill:#dbdbdb"></polygon><polygon points="180.63 120.54 178.7 156.46 210.12 155.25 202.39 120.54 180.63 120.54" style="fill:#dbdbdb"></polygon><polygon points="145.33 125.35 143.21 162.31 175.17 158.42 165.2 116.11 145.33 125.35" style="fill:#dbdbdb"></polygon><polygon points="409.56 123.66 382.14 123.66 379.17 162.05 417.29 162.05 409.56 123.66" style="fill:#dbdbdb"></polygon><polygon points="346.14 296.88 372.88 296.88 375.78 259.44 338.6 259.44 346.14 296.88" style="fill:#dbdbdb"></polygon><polygon points="299.71 254.48 298.08 290.94 331.87 286.81 327.98 250.59 299.71 254.48" style="fill:#dbdbdb"></polygon><polygon points="266.57 257.15 267.27 293.13 295.71 293.13 294.44 252.77 266.57 257.15" style="fill:#dbdbdb"></polygon><polygon points="226.51 257.5 221.89 292.52 256.96 292.52 253.99 255.81 226.51 257.5" style="fill:#dbdbdb"></polygon><polygon points="386.08 256.29 383.18 293.73 420.36 293.73 412.82 256.29 386.08 256.29" style="fill:#dbdbdb"></polygon><polygon points="453.52 124.32 425.59 124.32 423.85 166.96 460.25 164.98 453.52 124.32" style="fill:#dbdbdb"></polygon><polygon points="148.56 232.31 177 232.31 175.72 191.96 147.85 196.33 148.56 232.31" style="fill:#dbdbdb"></polygon><polygon points="230 193.12 230 230.09 265.55 230.09 264.08 191.44 230 193.12" style="fill:#dbdbdb"></polygon><polygon points="48.41 53.57 46.71 95.14 82.2 93.22 75.64 53.57 48.41 53.57" style="fill:#00764B"></polygon><path d="M67.23,80.72H60.39l-1.56,3.1H52.08L63.2,63.31h7.42l3.86,20.51H67.7ZM65.7,70.18l-2.87,5.7h3.71Z" style="fill:#fff"></path><polygon points="93.59 56.22 88.97 91.25 124.04 91.25 121.06 54.53 93.59 56.22" style="fill:#00764B"></polygon><polygon points="93.59 56.22 88.97 91.25 124.04 91.25 121.06 54.53 93.59 56.22" style="opacity:0.25"></polygon><path d="M106.53,72.18c5.73.35,6.6,2.84,6.6,4.66,0,5.65-8.23,8.46-12.54,8.46-2.12,0-3.22-.66-3.22-2.31,0-.06.06-.09.14-.09a11.06,11.06,0,0,0,2.73.29c6.66,0,11.53-3.36,11.53-6.87,0-3.16-4-3.65-7.3-3.65-.75,0-1.54,0-2.17,0-.9,3.13-1.74,6.35-2.61,9.33A1.56,1.56,0,0,1,98,80.64a7.47,7.47,0,0,1,.4-1.65c.58-1.92,3.6-11.3,6.15-16.26a15.48,15.48,0,0,0-4,1.57c-.29,0-.93-.5-.93-.79a16.11,16.11,0,0,1,6.87-1.59c2.58,0,6.69.58,6.69,4.61C113.16,70.32,109.51,71.69,106.53,72.18ZM106,62.56A55.23,55.23,0,0,0,102.47,72c4.23-.14,9-1.5,9-5.73,0-3-2.4-3.77-4.89-3.77A3.14,3.14,0,0,0,106,62.56Z" style="fill:#fff"></path><polygon points="165.82 53.79 131.73 55.48 131.73 92.45 167.29 92.45 165.82 53.79" style="fill:#455a64"></polygon><path d="M149.6,83a7.6,7.6,0,0,1-3.35-.71,7.28,7.28,0,0,1-2.44-1.91,8.06,8.06,0,0,1-1.46-2.71,10.24,10.24,0,0,1-.48-3.13,12.41,12.41,0,0,1,.23-2.37,14.3,14.3,0,0,1,.69-2.4,14,14,0,0,1,1.13-2.26,9.66,9.66,0,0,1,1.62-2,7.89,7.89,0,0,1,2.11-1.37,6.85,6.85,0,0,1,4.86-.15,5.36,5.36,0,0,1,1.83,1.07A5,5,0,0,1,156,68.88a5.26,5.26,0,0,1-.2,1.47,4.42,4.42,0,0,1-.61,1.36,3.46,3.46,0,0,1-1.06,1.06,2.78,2.78,0,0,1-1.55.45,2.11,2.11,0,0,1-2-1,3.49,3.49,0,0,1-.39-1.75c0-.24,0-.49,0-.76s0-.35,0-.51l-.19.1a2.08,2.08,0,0,0-.61.64,3.73,3.73,0,0,0-.47,1,10.27,10.27,0,0,0-.32,1.3,9.36,9.36,0,0,0-.15,1.23c0,.4,0,.74,0,1a7.08,7.08,0,0,0,.1,1.19,3.06,3.06,0,0,0,.33,1,2.05,2.05,0,0,0,.58.63,2.4,2.4,0,0,0,2.34-.21,12,12,0,0,0,1.95-1.25,20.09,20.09,0,0,0,1.91-1.69,23.07,23.07,0,0,0,1.57-1.77l.9-1.13,2.32,3.9-.37.52a24.63,24.63,0,0,1-3.05,3.6,18,18,0,0,1-1.53,1.33,13.07,13.07,0,0,1-1.78,1.18,10.79,10.79,0,0,1-2,.86A7.1,7.1,0,0,1,149.6,83Zm.67-17.34a4.48,4.48,0,0,0-1.82.36,5.53,5.53,0,0,0-1.56,1,7,7,0,0,0-1.27,1.53,10.76,10.76,0,0,0-1,1.92,12.61,12.61,0,0,0-.6,2,11,11,0,0,0-.19,2,8.45,8.45,0,0,0,.38,2.52,6.32,6.32,0,0,0,1.1,2.05,5.36,5.36,0,0,0,1.77,1.38,5.63,5.63,0,0,0,2.48.51,5,5,0,0,0,1.58-.25,8.53,8.53,0,0,0,1.61-.7,12.33,12.33,0,0,0,1.51-1,18.27,18.27,0,0,0,1.38-1.2,21.94,21.94,0,0,0,2.42-2.78l-.19-.33c-.25.27-.51.55-.79.83A20.71,20.71,0,0,1,155,77.49a15.17,15.17,0,0,1-2.26,1.44,4.27,4.27,0,0,1-4.39.08,4,4,0,0,1-1.19-1.32,5,5,0,0,1-.55-1.61,8.83,8.83,0,0,1-.13-1.52c0-.3,0-.68,0-1.13A11.3,11.3,0,0,1,146.7,72a14.17,14.17,0,0,1,.37-1.53,5.87,5.87,0,0,1,.71-1.54A4.22,4.22,0,0,1,149,67.69a3.27,3.27,0,0,1,1.83-.52,1.37,1.37,0,0,1,1.35,1,3.51,3.51,0,0,1,.13,1c0,.22,0,.46,0,.73s0,.42,0,.61a1.91,1.91,0,0,0,.09.67,1.13,1.13,0,0,0,.75-.1,1.69,1.69,0,0,0,.48-.48,2.7,2.7,0,0,0,.34-.79,3.38,3.38,0,0,0,.13-.94,2.84,2.84,0,0,0-.26-1.24,3,3,0,0,0-.73-1,3.53,3.53,0,0,0-1.17-.68A4.66,4.66,0,0,0,150.27,65.7Zm2,5.48Z" style="fill:#fff"></path><polygon points="177.76 55.61 175.87 90.63 206.51 89.45 198.97 55.61 177.76 55.61" style="fill:#00764B"></polygon><path d="M193.21,71.91a4.87,4.87,0,0,0,.17,1.69c-.15.76-.28,1.8-.4,3.1a21.66,21.66,0,0,1-.43,3,7.84,7.84,0,0,1-.62,1.76,7.29,7.29,0,0,1-3.07,2.91h-2.43c-.2,0-.31-.32-.31-.94q-.13-2.73-.13-6.1l.07-8.28q0-3.65-.14-6.59a.73.73,0,0,1-.29-.6.76.76,0,0,1,.29-.61.8.8,0,0,1,.53-.26.83.83,0,0,1,.54.28,2.26,2.26,0,0,0,.45.36,3.22,3.22,0,0,0,.74.17,3.62,3.62,0,0,1,1,.28,7,7,0,0,1,1.25,1,15.3,15.3,0,0,0,1.18,1.06l0,.06a3,3,0,0,0,.52.9,5,5,0,0,1,.61,1,12.25,12.25,0,0,1,.56,4.17Zm-1,2.13,0-1.26L192,69.25A10,10,0,0,0,190.76,65a5.18,5.18,0,0,0-1.41-1.76,3,3,0,0,0-1.89-.7c-.26,0-.39,2.33-.39,7s.13,8.85.39,12.55l0,.67.14.07.1.46h1.08a2.37,2.37,0,0,1,.52-.53c.22-.16.36-.28.44-.35C191.36,81,192.18,78.16,192.18,74Z" style="fill:#fff"></path><polygon points="46.25 254.84 44.55 296.42 80.05 294.49 73.48 254.84 46.25 254.84" style="fill:#00764B"></polygon><path d="M64,287.55l-4.31.14a.53.53,0,0,1-.39-.16.49.49,0,0,1-.16-.38l.17-.34.94,0a.87.87,0,0,0,.69-.23,1.14,1.14,0,0,0,.19-.73c0-2.95-.08-5.63-.22-8.05q-.27-4.09-.79-12l0-1.2a3.43,3.43,0,0,0-.32-1.61,1.33,1.33,0,0,0-1.29-.59l-.8.07c-.4,0-.6-.13-.6-.38s1-.5,3.08-.5a.54.54,0,0,1,.4.17.58.58,0,0,1,.17.4h.06a7.89,7.89,0,0,0-.1,1.34,30.07,30.07,0,0,0,.27,3,33.6,33.6,0,0,1,.26,3.75c0,1,.1,2.84.29,5.45s.29,4.27.29,5a8.61,8.61,0,0,1-.06,1.34,22.15,22.15,0,0,1,.22,4l0,.52.15.1,1.57-.1c.72,0,1.08.16,1.08.49S64.5,287.55,64,287.55Z" style="fill:#fff"></path><polygon points="91.43 257.49 86.81 292.52 121.88 292.52 118.9 255.81 91.43 257.49" style="fill:#00764B"></polygon><polygon points="91.43 257.49 86.81 292.52 121.88 292.52 118.9 255.81 91.43 257.49" style="opacity:0.25"></polygon><path d="M101.18,271.8a2.32,2.32,0,0,1-2-2.58,6.13,6.13,0,0,1,6.26-6c2.87,0,4.64,2.35,4.64,5.28a14.07,14.07,0,0,1-1.36,5.7,27.33,27.33,0,0,1-7,9.22l.82.17a27.41,27.41,0,0,0,5.41.9,3.94,3.94,0,0,0,2.21-.72c-.5,2-1.42,2.84-3,2.84s-3.65-.87-5.56-1.68c-.44-.18-.84-.38-1.25-.53a6.4,6.4,0,0,1-3.3,1.25c-1.16,0-2-.64-2-1.56s.66-1.4,2.17-1.4a16.85,16.85,0,0,1,3,.41c3.54-3.13,7.77-9.85,7.77-15,0-2.9-1.31-4.12-3.07-4.12-2.55,0-4,2.55-4,5.86a4.91,4.91,0,0,0,.35,2Zm-2,12.14a7.48,7.48,0,0,0-2.2-.52c-.78,0-1,.43-1,.69,0,.44.52.73,1,.73A4.28,4.28,0,0,0,99.15,283.94Z" style="fill:#fff"></path><polygon points="163.66 255.06 129.57 256.75 129.57 293.72 165.13 293.72 163.66 255.06" style="fill:#455a64"></polygon><path d="M146.74,264.8a6,6,0,0,1,1.86.28,4.65,4.65,0,0,1,1.57.84,4,4,0,0,1,1.07,1.4,4.49,4.49,0,0,1,.4,2,3.83,3.83,0,0,1-.28,1.55,3.58,3.58,0,0,1-.73,1.1,4.22,4.22,0,0,1-1,.76,8.47,8.47,0,0,1-1,.48v.09a7.15,7.15,0,0,1,1.65.56,5.55,5.55,0,0,1,1.6,1.11,5.79,5.79,0,0,1,1.2,1.79,6.54,6.54,0,0,1,.32,3.9,6.55,6.55,0,0,1-.5,1.47,7,7,0,0,1-.87,1.41,5.71,5.71,0,0,1-1.3,1.19,6.32,6.32,0,0,1-1.75.84,7.51,7.51,0,0,1-2.25.31,7.84,7.84,0,0,1-1.81-.2,7.92,7.92,0,0,1-1.49-.54,6.73,6.73,0,0,1-1.19-.76,11.11,11.11,0,0,1-.92-.87,8.31,8.31,0,0,1-.69-.85l-.52-.74.44-.38a5.24,5.24,0,0,0,1.7,1.57,4.71,4.71,0,0,0,2.32.54,4.39,4.39,0,0,0,1.3-.24,3.63,3.63,0,0,0,1.32-.8,4.34,4.34,0,0,0,1-1.45,5.55,5.55,0,0,0,.41-2.25,5.4,5.4,0,0,0-.31-1.85,4,4,0,0,0-1-1.5,4.53,4.53,0,0,0-1.58-1,6.64,6.64,0,0,0-2.27-.44v-.59a3.64,3.64,0,0,0,1.21-.22,3.28,3.28,0,0,0,1.85-1.72,3.52,3.52,0,0,0,.29-1.46,5.09,5.09,0,0,0-.13-1.16,3.27,3.27,0,0,0-.46-1,2.63,2.63,0,0,0-.82-.77,2.43,2.43,0,0,0-1.23-.29,2.39,2.39,0,0,0-.77.11,2.59,2.59,0,0,0-.63.29,3,3,0,0,0-.55.46,5.9,5.9,0,0,0-.49.59l-.43-.35a8.18,8.18,0,0,1,1-1.25,6.66,6.66,0,0,1,1.21-1A5.92,5.92,0,0,1,145,265,6.38,6.38,0,0,1,146.74,264.8Z" style="fill:#fff"></path><polygon points="175.6 256.88 173.71 291.91 204.35 290.72 196.81 256.88 175.6 256.88" style="fill:#00764B"></polygon><path d="M190,282.69H179.53l-1-1.65c2.46-4.65,6.95-15.12,9-19.89h.95L192,263,184,278.35l-1.4,2.06L190,280l.31-5.92,3.45-.28v5.94l4.05-.22v3.2h-4.05v5.06H190Z" style="fill:#fff"></path><polygon points="235.62 56.94 211.54 58.17 214.46 88.81 239.02 90.78 235.62 56.94" style="fill:#37474f"></polygon><path d="M231.89,73.39A21.54,21.54,0,0,1,230,75.81a17.09,17.09,0,0,1-2.27,2.09,12.58,12.58,0,0,1-2.47,1.49,5.87,5.87,0,0,1-2.44.56,3.5,3.5,0,0,1-1.35-.29,3.86,3.86,0,0,1-1.31-.92,4.34,4.34,0,0,1-1-1.62,5.5,5.5,0,0,1-.22-2.4,7.53,7.53,0,0,1,.73-2.45,10.5,10.5,0,0,1,1.5-2.36,8.51,8.51,0,0,1,2-1.79,4.15,4.15,0,0,1,2.25-.7A2,2,0,0,1,227,68a1.75,1.75,0,0,1,.43,1.33,4.21,4.21,0,0,1-.5,1.61,6.44,6.44,0,0,1-1,1.33,9.36,9.36,0,0,1-1.2,1.07c-.42.32-.82.62-1.2.88l-1.19.81q-.57.38-1,.69a3.13,3.13,0,0,0,.25,1.19,2.46,2.46,0,0,0,.57.78,2,2,0,0,0,.78.42,3,3,0,0,0,.89.13,4,4,0,0,0,2-.61,13,13,0,0,0,2-1.47,22.83,22.83,0,0,0,1.87-1.8c.57-.62,1.05-1.16,1.43-1.61a.77.77,0,0,1,.41-.27.39.39,0,0,1,.34.06.41.41,0,0,1,.13.34A1.09,1.09,0,0,1,231.89,73.39ZM224.64,69a1.43,1.43,0,0,0-.8.34,4.18,4.18,0,0,0-.92,1,7.7,7.7,0,0,0-.85,1.55,8.87,8.87,0,0,0-.6,2.11l.74-.52c.26-.18.53-.37.79-.58a7.89,7.89,0,0,0,1.7-1.64,3,3,0,0,0,.54-1.22,1.17,1.17,0,0,0-.12-.78A.55.55,0,0,0,224.64,69Z" style="fill:#fff"></path><polygon points="267.84 59.45 245.47 64.07 243.3 84.59 255.57 99.1 278.05 86.2 267.84 59.45" style="fill:#00764B"></polygon><path d="M255.62,94.32a1.69,1.69,0,0,0-1.16-1.13c.08-4,.31-7.53,1.66-17.53a13.89,13.89,0,0,0-2.53.51,1.26,1.26,0,0,1-.36-.66,23.24,23.24,0,0,1,3-1.07c1-6,3.53-10.13,6.66-10.58.46-.06.93,0,1.16-.08a3.15,3.15,0,0,1,1.36-.72,1.73,1.73,0,0,1,.94.25,12.2,12.2,0,0,0-.57,2.57,6.29,6.29,0,0,1-1.12,3c-.23,0-.35-.19-.47-.78a7.2,7.2,0,0,0-.34-1.16,2.24,2.24,0,0,1-.34-.94,9,9,0,0,1,0-1.26c-1.26.18-2.76,3.85-3.69,9l2.39-.43a3.77,3.77,0,0,1,.62,1.64l-3.18.28c-1.65,9-2.88,16.77-3,20.09A1.37,1.37,0,0,1,255.62,94.32Z" style="fill:#fff"></path><polygon points="285.04 55.12 282.45 94.75 310.14 87.7 305.4 55.12 285.04 55.12" style="fill:#455a64"></polygon><path d="M292.84,88.8c-2.68,0-4.79-.74-6.08-2.13A6.07,6.07,0,0,1,285.29,82l0-.47h5.33a5,5,0,0,1-3-1.72c-1.26-1.5-1.69-3.8-1.22-6.49.86-4.87,4.1-8.14,8.08-8.14A4.57,4.57,0,0,1,298,66.49l.22-1.16h6.91l-2.72,15.39C301.51,85.78,297.94,88.8,292.84,88.8Zm-6.57-6.31a4.81,4.81,0,0,0,1.22,3.5c1.1,1.18,2.95,1.81,5.35,1.81,6.59,0,8.19-5.07,8.57-7.25l2.51-14.22H299l-.64,3.5-.62-1.78c-.44-1.23-1.61-1.91-3.3-1.91-3.47,0-6.33,2.94-7.09,7.31-.42,2.39-.07,4.41,1,5.68a4.24,4.24,0,0,0,3.37,1.46,4.94,4.94,0,0,0,4.16-2l1.29-1.83-.71,4c-.36,2-1.39,3-3.17,3-1.44,0-1.95-.64-2.12-1.18Zm5.83-.91V82c0,.2,0,.69,1.21.69s1.87-.36,2.18-2.13l0-.18A6.11,6.11,0,0,1,292.1,81.58Zm2.53-5.18a2.28,2.28,0,0,1-1.77-.75,2.78,2.78,0,0,1-.46-2.37,3.24,3.24,0,0,1,3.14-3,2.24,2.24,0,0,1,1.77.75,2.78,2.78,0,0,1,.46,2.37A3.25,3.25,0,0,1,294.63,76.4Zm.91-5.07a2.28,2.28,0,0,0-2.15,2.12,1.88,1.88,0,0,0,.24,1.55,1.29,1.29,0,0,0,1,.4,2.28,2.28,0,0,0,2.15-2.12,1.88,1.88,0,0,0-.24-1.56A1.31,1.31,0,0,0,295.54,71.33Z" style="fill:#fff"></path><polygon points="318.98 52.78 317.29 90.63 352.36 86.34 348.32 48.75 318.98 52.78" style="fill:#00764B"></polygon><path d="M341.67,71.78a3.91,3.91,0,0,1,.45.07,3.3,3.3,0,0,1,.63.17,3.45,3.45,0,0,1,.7.34,2.39,2.39,0,0,1,.65.59,3.38,3.38,0,0,1,.48.93,4.66,4.66,0,0,1-.09,3,4.7,4.7,0,0,1-.84,1.44,4.27,4.27,0,0,1-1.3,1,3.65,3.65,0,0,1-1.64.41,4.17,4.17,0,0,1-1.6-.26A2.79,2.79,0,0,1,338,78.7a3.06,3.06,0,0,1-.66-1.22,5.65,5.65,0,0,1-.23-1.59,12.21,12.21,0,0,1,.27-2.41,17.4,17.4,0,0,1,1.1-3.4c-.87.37-1.74.71-2.6,1s-1.72.58-2.57.85A24,24,0,0,1,331.83,74a22.5,22.5,0,0,1-1.71,1.92,20,20,0,0,1-1.83,1.65,16.09,16.09,0,0,1-1.87,1.32,9.18,9.18,0,0,1-1.8.86,5.14,5.14,0,0,1-1.63.33,2.53,2.53,0,0,1-1.11-.18,2,2,0,0,1-.68-.47,1.54,1.54,0,0,1-.34-.61,2.35,2.35,0,0,1-.1-.61,2.13,2.13,0,0,1,.15-.77,3.67,3.67,0,0,1,.5-.86,5.11,5.11,0,0,1,.87-.87,6.55,6.55,0,0,1,1.23-.81c.73-.39,1.45-.74,2.18-1s1.44-.59,2.16-.85,1.42-.5,2.12-.73l2.11-.67c.37-.66.7-1.34,1-2a21.36,21.36,0,0,0,.8-2,16.05,16.05,0,0,0,.53-1.85,7.42,7.42,0,0,0,.17-1.61,2.71,2.71,0,0,0-.19-1,2.14,2.14,0,0,0-.52-.78,2.09,2.09,0,0,0-.81-.5,2.75,2.75,0,0,0-1.06-.17A8.13,8.13,0,0,0,330,62a8.94,8.94,0,0,0-1.83.72A7.86,7.86,0,0,0,325.45,65a5.62,5.62,0,0,0-.74,1.35,3.62,3.62,0,0,0-.24,1.34,1.92,1.92,0,0,0,.28,1.06,2.17,2.17,0,0,0,.7.65,2.66,2.66,0,0,0,.9.34,4.74,4.74,0,0,0,.89.08,5.18,5.18,0,0,0,.9-.09,7.64,7.64,0,0,0,.76-.19,5.17,5.17,0,0,0,.73-.27l.26.55-.33.13a7.2,7.2,0,0,1-.7.23,9.06,9.06,0,0,1-1,.21,8,8,0,0,1-1.26.11,5.22,5.22,0,0,1-1.33-.14,3.16,3.16,0,0,1-1.1-.49,2.37,2.37,0,0,1-.75-.88,3,3,0,0,1-.29-1.33,3.81,3.81,0,0,1,.38-1.71,6.11,6.11,0,0,1,1.08-1.55,8.89,8.89,0,0,1,1.57-1.33A12.4,12.4,0,0,1,328,62a10.77,10.77,0,0,1,2-.69,8.5,8.5,0,0,1,1.94-.26,4.74,4.74,0,0,1,1.54.21,3.24,3.24,0,0,1,1.21.66,3.15,3.15,0,0,1,.81,1.13,4.14,4.14,0,0,1,.3,1.57,7.22,7.22,0,0,1-.16,1.62,11.94,11.94,0,0,1-.46,1.73,14.89,14.89,0,0,1-.65,1.65,12,12,0,0,1-.76,1.44c.86-.26,1.7-.54,2.53-.84s1.67-.63,2.52-1a33,33,0,0,1,2.37-4.13,18.13,18.13,0,0,1,2.09-2.56,6.64,6.64,0,0,1,1.77-1.31,3.6,3.6,0,0,1,1.39-.38,1.47,1.47,0,0,1,1.07.35,1.39,1.39,0,0,1,.39,1,2.92,2.92,0,0,1-.53,1.6,7.82,7.82,0,0,1-1.49,1.67,26.67,26.67,0,0,1-2.8,2.11,27.79,27.79,0,0,1-2.81,1.62c-.42.94-.77,1.78-1,2.53s-.49,1.42-.65,2a13.83,13.83,0,0,0-.32,1.58,8.09,8.09,0,0,0-.09,1.23,3.33,3.33,0,0,0,.2,1.15,2.28,2.28,0,0,0,.53.8,2.07,2.07,0,0,0,.78.47,2.86,2.86,0,0,0,1,.14,3.13,3.13,0,0,0,1.35-.33,3.66,3.66,0,0,0,1.11-.85,3.93,3.93,0,0,0,.75-1.25,4.22,4.22,0,0,0,.26-1.52A3.58,3.58,0,0,0,344,74a2.39,2.39,0,0,0-.44-.79,2,2,0,0,0-.57-.49,3.14,3.14,0,0,0-.59-.25,2,2,0,0,0-.47-.1h-.25Zm-18.18,7.49a4.64,4.64,0,0,0,2-.53,10.77,10.77,0,0,0,2.11-1.43,17.88,17.88,0,0,0,2.09-2.15,23.33,23.33,0,0,0,1.9-2.68l-.71.22c-.49.16-1.05.34-1.67.56s-1.24.47-1.88.75-1.27.58-1.88.91a11.76,11.76,0,0,0-1.63,1,5.22,5.22,0,0,0-1.14,1.17,2.05,2.05,0,0,0-.42,1.26.75.75,0,0,0,.35.67A1.5,1.5,0,0,0,323.49,79.27Zm17.22-10.94a27.85,27.85,0,0,0,2.4-1.45A26.9,26.9,0,0,0,345.53,65a6.74,6.74,0,0,0,.85-.83,6.41,6.41,0,0,0,.56-.77,3.11,3.11,0,0,0,.3-.66,1.45,1.45,0,0,0,.09-.54.79.79,0,0,0-.21-.56.78.78,0,0,0-.64-.22,2.06,2.06,0,0,0-1,.28,5.11,5.11,0,0,0-1,.77,9.71,9.71,0,0,0-1,1.14c-.33.44-.66.91-1,1.42s-.63,1-.93,1.6S341,67.77,340.71,68.33Z" style="fill:#fff"></path><polygon points="356.39 53.3 356.39 85.39 374.39 91.47 372.71 51.84 356.39 53.3" style="fill:#00764B"></polygon><polygon points="356.39 53.3 356.39 85.39 374.39 91.47 372.71 51.84 356.39 53.3" style="fill:#fff;opacity:0.35000000000000003"></polygon><path d="M370.71,78.82a18.88,18.88,0,0,1-1.57,1.23,16.74,16.74,0,0,1-2,1.21,15.64,15.64,0,0,1-2.21.92,7.09,7.09,0,0,1-2.15.37,4.08,4.08,0,0,1-1.53-.26,2.57,2.57,0,0,1-1-.71,2.76,2.76,0,0,1-.55-1.11A5.94,5.94,0,0,1,359.5,79a15.17,15.17,0,0,1,.25-2.57c.17-1,.38-2,.62-3s.51-2.09.78-3.12.52-2,.73-2.88a1.55,1.55,0,0,1,.49-.78,3.07,3.07,0,0,1,.83-.52,4.11,4.11,0,0,1,1-.3,5.36,5.36,0,0,1,.91-.1,1.32,1.32,0,0,1,1,.28,1,1,0,0,1,.27.72,5,5,0,0,1-.18,1.11c-.12.49-.26,1-.44,1.65l-.56,2c-.2.71-.38,1.41-.56,2.12s-.32,1.39-.44,2.07a11.3,11.3,0,0,0-.17,1.81,3.84,3.84,0,0,0,.17,1.25.7.7,0,0,0,.72.46,2.88,2.88,0,0,0,1.4-.43,12,12,0,0,0,1.56-1.06c.53-.42,1-.85,1.54-1.29s.95-.82,1.34-1.14Zm-7.83-18a2.72,2.72,0,0,1,.17-.91,2.83,2.83,0,0,1,.57-.95,3.16,3.16,0,0,1,1.05-.76,3.94,3.94,0,0,1,1.64-.3,4.27,4.27,0,0,1,1.15.14,2.59,2.59,0,0,1,1,.43,2,2,0,0,1,.64.76,2.44,2.44,0,0,1,.24,1.12,3.54,3.54,0,0,1-.2,1.16,2.69,2.69,0,0,1-.61,1,3,3,0,0,1-1.06.71,4,4,0,0,1-1.53.27,3.15,3.15,0,0,1-2.28-.72A2.61,2.61,0,0,1,362.88,60.81Z" style="fill:#263238"></path><polygon points="382 55.85 382.7 91.83 411.14 91.83 409.87 51.48 382 55.85" style="fill:#00764B"></polygon><polygon points="382 55.85 382.7 91.83 411.14 91.83 409.87 51.48 382 55.85" style="opacity:0.25"></polygon><path d="M402.07,63.61,399,81.08c-.87,5.08-4.05,6.7-7.88,6.7H389l.95-5.48h1.25a1.22,1.22,0,0,0,1.39-1.1l3.1-17.59Zm-6.17-4.46a4.1,4.1,0,0,1,4.26-3.22c2.26,0,3.45,1.42,3.13,3.22a4.07,4.07,0,0,1-4.23,3.16C396.77,62.31,395.58,60.92,395.9,59.15Z" style="fill:#fff"></path><polygon points="416.94 52.71 418.15 92.09 442.04 97.44 447.14 83.34 434.5 51.01 416.94 52.71" style="fill:#37474f"></polygon><path d="M433.07,75.89a1.36,1.36,0,0,0-1.45-1.31c-3.42,0-5.45,7.94-5.8,8.58a1.16,1.16,0,0,1-1,.52c-1,0-1-1.39-1-2.72,0-6.06,6.72-18.87,8.78-18.87.52,0,.9.84.9,1.89,0,2.66-2.49,6.86-5.91,8.92a24.11,24.11,0,0,0-1.91,8.29c1.21-3.07,3.59-8.11,6.49-8.11a2.58,2.58,0,0,1,2.58,2.57c0,2.5-3,3.4-4.12,3.4.09.63.73,3.73,2.26,3.73s3.1-2.08,4.29-4.72l.29.29c-.84,2.84-3.13,5.53-5.16,5.53-2.2,0-2.95-3.44-2.95-5.21C430.23,78.67,433.07,77.86,433.07,75.89Zm-5-4.15c2.67-2.14,4.43-5.56,4.43-7,0-.2,0-.26-.08-.26C431.85,64.44,429.76,67.86,428.08,71.74Z" style="fill:#fff"></path><polygon points="55.61 119.52 52.71 156.96 89.89 156.96 82.35 119.52 55.61 119.52" style="fill:#00764B"></polygon><path d="M73.21,147.86a3.36,3.36,0,0,1-.14.93,16,16,0,0,0-2.15-.12,44.29,44.29,0,0,0-7.42.79,5.87,5.87,0,0,1-2.57-2.55,109.42,109.42,0,0,0,4.55-11.22,74.09,74.09,0,0,0,2.81-10.2,5.55,5.55,0,0,1,3.65,2.64,98.83,98.83,0,0,0-3.89,9.24c-1.71,4.52-3.36,8.2-3.39,9.33a15.8,15.8,0,0,0,3.65-.61,21.47,21.47,0,0,1,4.18-.63A4.78,4.78,0,0,1,73.21,147.86Z" style="fill:#fff"></path><polygon points="425.43 252.29 422.54 289.73 459.71 289.73 452.18 252.29 425.43 252.29" style="fill:#00764B"></polygon><path d="M430.87,270.15c0-7.64,4.73-11.44,10.17-11.44,6.22,0,9.2,4.19,9.2,11.09,0,7.6-4.55,11.69-10.09,11.66C434,281.46,430.87,276.94,430.87,270.15Zm14,0c0-6.29-1.1-9.35-4.3-9.35-3,0-4.41,3.06-4.41,8.92,0,6.19,1.25,9.56,4.38,9.56S444.91,276.16,444.91,270.19Z" style="fill:#fff"></path><polygon points="127.65 118.31 90.96 126.12 97.02 162.59 135.58 156.18 127.65 118.31" style="fill:#00764B"></polygon><polygon points="127.65 118.31 90.96 126.12 97.02 162.59 135.58 156.18 127.65 118.31" style="opacity:0.25"></polygon><path d="M120.9,140.29a1.73,1.73,0,0,0-1.89-2.23,2.57,2.57,0,0,0-2.69,2.17L114.78,149h-6.4l1.54-8.66a1.73,1.73,0,0,0-1.89-2.23,2.57,2.57,0,0,0-2.69,2.2L103.8,149H97.37l2.9-16.34h6.43l-.41,2.2a6.67,6.67,0,0,1,5.13-2.32,4.74,4.74,0,0,1,4.78,3,8,8,0,0,1,5.89-3c4.23,0,6.11,2.75,5.36,7L125.77,149h-6.41Z" style="fill:#fff"></path><polygon points="365.77 162.12 368.74 123.73 330.62 123.73 338.35 162.12 365.77 162.12" style="fill:#00764B"></polygon><polygon points="365.77 162.12 368.74 123.73 330.62 123.73 338.35 162.12 365.77 162.12" style="fill:#fff;opacity:0.35000000000000003"></polygon><path d="M352.24,131l-.74-.21a1.31,1.31,0,0,0-1,.44,2.69,2.69,0,0,0-.61,1.09,6.5,6.5,0,0,0-.43,2c0,.48,0,.82,0,1s.07.44.13.72.11.47.13.58.09.35.2.71.17.56.18.61l.25.63.89,1.55c.37.62.64,1.09.82,1.41s.4.74.64,1.26a7.66,7.66,0,0,1,.51,1.41,11.45,11.45,0,0,1,.43,2.92,18.49,18.49,0,0,1-.1,2.07,8.27,8.27,0,0,1-.39,1.6,6.42,6.42,0,0,1-.69,1.44,3,3,0,0,1-2.64,1.44l-.17.08c-.68-.12-1.06-.41-1.13-.85l.17-.28,1.27.24a1.85,1.85,0,0,0,1.39-.62,4.2,4.2,0,0,0,.87-1.59,12,12,0,0,0,.51-3.29,9.25,9.25,0,0,0-.43-2.86,14,14,0,0,0-1.06-2.45l-1.23-2.23a10.87,10.87,0,0,1-1.49-5.29,6.88,6.88,0,0,1,.48-2.55c.58-1.49,1.35-2.24,2.29-2.24a1.63,1.63,0,0,1,.87.3.83.83,0,0,1,.47.68C352.7,130.88,352.55,131,352.24,131Zm.24-.14v0h0S352.5,130.83,352.48,130.83Z" style="fill:#263238"></path><polygon points="290.73 118.64 289.06 156.04 323.72 151.8 319.73 114.65 290.73 118.64" style="fill:#00764B"></polygon><polygon points="290.73 118.64 289.06 156.04 323.72 151.8 319.73 114.65 290.73 118.64" style="opacity:0.25"></polygon><path d="M317.55,146.2h-5.88c-1,0-1.72-1.57-2.94-4.58-.91-2.22-2-5-3.08-5.54H303v7l2.91.31v2.85H294.85v-2.84l2.5-.32V125l-2.37-.45V121.7h5.09c.85,0,1.6,0,2.39-.11s1.7-.11,2.76-.11c6.63,0,9.45,2,9.45,6.76a7.44,7.44,0,0,1-3.93,6.7c1.59,1.19,2.72,3.47,3.66,5.35.59,1.18,1.32,2.64,1.73,2.74l1.42.43ZM302,135.08l4,0c1.46.63,2.59,3.42,3.69,6.12.62,1.53,1.56,3.83,2,4h4.86v-1l-.69-.21c-.83-.21-1.47-1.49-2.35-3.26-1-2.09-2.34-4.69-4.09-5.43l-1.25-.53,1.3-.41a6.24,6.24,0,0,0,4.2-6.13c0-3.46-1.43-5.76-8.45-5.76-1,0-1.87,0-2.7.11s-1.56.11-2.45.11H296v1l2.37.44v19.78l-2.5.31v1h9.06v-.95l-2.91-.32Zm2.34-.93a16.23,16.23,0,0,1-1.91-.07L302,134V123.63l.47,0,.39,0a15.23,15.23,0,0,1,1.95-.12c3.41,0,4.93,1.55,4.93,5,0,4.95-2.71,5.69-4.33,5.69h-1.07Zm-1.34-1c.62,0,1.55,0,2.06,0h.35c2.21,0,3.33-1.58,3.33-4.69,0-2.89-1.1-4-3.93-4a13.86,13.86,0,0,0-1.81.11Z" style="fill:#fff"></path><polygon points="256.75 121.38 257.47 158.28 286.64 158.28 285.33 116.9 256.75 121.38" style="fill:#455a64"></polygon><path d="M261.56,134.56a9.37,9.37,0,0,1,.55-3.33,7,7,0,0,1,1.48-2.39,6,6,0,0,1,2.14-1.44,6.88,6.88,0,0,1,2.55-.48,7.38,7.38,0,0,1,2.56.45,5.81,5.81,0,0,1,2.14,1.35,6.69,6.69,0,0,1,1.47,2.32,9,9,0,0,1,.55,3.31,9.49,9.49,0,0,1-.55,3.37,7.61,7.61,0,0,1-1.47,2.47,6.23,6.23,0,0,1-2.14,1.51,6.44,6.44,0,0,1-2.56.52h-.09a14.44,14.44,0,0,1,1.78.64c.65.27,1.31.56,2,.87s1.39.62,2.09,1,1.39.61,2,.88a17.91,17.91,0,0,0,1.87.63,5.66,5.66,0,0,0,1.57.25,3.56,3.56,0,0,0,.79-.07,1.86,1.86,0,0,0,.55-.21,1,1,0,0,0,.34-.3,2.42,2.42,0,0,0,.21-.39l.43.09a5,5,0,0,1-.34,1.5,3.79,3.79,0,0,1-.72,1.16,3.26,3.26,0,0,1-1.1.75,3.61,3.61,0,0,1-1.43.27,6.13,6.13,0,0,1-2-.38,22,22,0,0,1-2.29-.93c-.78-.37-1.58-.78-2.39-1.21s-1.6-.84-2.37-1.22a21.81,21.81,0,0,0-2.2-.93,5.71,5.71,0,0,0-1.9-.38,1.25,1.25,0,0,0-1.21.74l-.45-.14a3.59,3.59,0,0,1,.75-1.6,3.4,3.4,0,0,1,.94-.8,3,3,0,0,1,1.4-.4,6.33,6.33,0,0,1-1.93-.87,6,6,0,0,1-1.57-1.53A7.18,7.18,0,0,1,262,137.4,9.61,9.61,0,0,1,261.56,134.56Zm8.93-.15c0-.77,0-1.52-.08-2.24a11,11,0,0,0-.31-1.92,3.56,3.56,0,0,0-.67-1.35,1.54,1.54,0,0,0-2.3,0,3.65,3.65,0,0,0-.66,1.4,9.82,9.82,0,0,0-.31,2c-.05.74-.07,1.49-.07,2.27s0,1.53.07,2.27a10,10,0,0,0,.31,2,3.65,3.65,0,0,0,.66,1.4,1.45,1.45,0,0,0,1.15.53,1.41,1.41,0,0,0,1.15-.55,4,4,0,0,0,.67-1.46,12.25,12.25,0,0,0,.31-2C270.46,136,270.49,135.18,270.49,134.41Z" style="fill:#fff"></path><polygon points="215.67 121.74 210.94 157.66 246.9 157.66 243.85 120.01 215.67 121.74" style="fill:#00764B"></polygon><polygon points="215.67 121.74 210.94 157.66 246.9 157.66 243.85 120.01 215.67 121.74" style="fill:#fff;opacity:0.35000000000000003"></polygon><path d="M228.51,138.53c-1.16,4-2.23,8-3.13,11.1-1,0-2-.61-2-1.45a5.66,5.66,0,0,1,.41-1.59A181.22,181.22,0,0,1,230.91,127a18.34,18.34,0,0,0-4,1.59c-.23,0-.9-.49-.9-.78a17.07,17.07,0,0,1,6.4-1.6c3.42,0,7.45,1.89,7.45,5.6,0,6-9.16,6.69-11,6.69Zm4.14-11.68a71.54,71.54,0,0,0-4,11.22c4.26-.23,9.27-2.29,9.27-6.73C237.9,128.22,235.38,126.88,232.65,126.85Z" style="fill:#263238"></path><polygon points="276.93 188.74 272.31 223.77 307.38 223.77 304.41 187.06 276.93 188.74" style="fill:#00764B"></polygon><polygon points="276.93 188.74 272.31 223.77 307.38 223.77 304.41 187.06 276.93 188.74" style="fill:#fff;opacity:0.35000000000000003"></polygon><path d="M289.44,207.29l-6.36-11.09-1.69-.39V194h8.74v1.84l-2.11.39,3.71,7.28.83,2.05.87-2.05,3.42-7.28-2.32-.39V194h7.25v1.84l-1.84.36L294,207.26V214l3.24.3v1.78h-11v-1.78l3.15-.3Z" style="fill:#263238"></path><polygon points="312.44 189.72 313.14 225.7 341.58 225.7 340.3 185.34 312.44 189.72" style="fill:#455a64"></polygon><path d="M328.12,205.27l.2.39a2,2,0,0,1,.21.64c.48-.3.94-.62,1.4-1a14,14,0,0,0,1.33-1.13,14.79,14.79,0,0,0,1.25-1.35,16.19,16.19,0,0,0,1.16-1.63l.41.32a16.11,16.11,0,0,1-1.22,1.74,13.85,13.85,0,0,1-1.32,1.42,16.22,16.22,0,0,1-1.43,1.2c-.49.36-1,.71-1.54,1a6.58,6.58,0,0,1-.48,2.16,11.6,11.6,0,0,1-1.08,2.1,14.31,14.31,0,0,1-1.5,1.89,14.82,14.82,0,0,1-1.69,1.54,8.8,8.8,0,0,1-1.67,1,3.36,3.36,0,0,1-1.44.38,1.67,1.67,0,0,1-.75-.15,1.39,1.39,0,0,1-.49-.4,1.54,1.54,0,0,1-.26-.53,1.81,1.81,0,0,1-.09-.55,3,3,0,0,1,.42-1.43,7.12,7.12,0,0,1,1.23-1.59,15.61,15.61,0,0,1,2-1.68,26.05,26.05,0,0,1,2.76-1.69l1.07-.59,1.06-.6v-.12a.49.49,0,0,0,0-.12,3.25,3.25,0,0,0-.05-.59,1.69,1.69,0,0,0-.15-.42,3,3,0,0,1-1.07.25,1.24,1.24,0,0,1-.71-.2.64.64,0,0,1-.29-.55.66.66,0,0,1,.32-.57,1.47,1.47,0,0,1,.77-.2,1.84,1.84,0,0,1,1.12.39,5.76,5.76,0,0,0,1-1.06,8.37,8.37,0,0,0,.88-1.41,8.81,8.81,0,0,0,.61-1.54,5.4,5.4,0,0,0,.23-1.48,1.72,1.72,0,0,0-.1-.64,1.08,1.08,0,0,0-.26-.43.84.84,0,0,0-.37-.25,1,1,0,0,0-.43-.08,1.84,1.84,0,0,0-.91.23,4,4,0,0,0-.81.59,6.87,6.87,0,0,0-.71.8c-.22.29-.41.58-.59.85s-.34.53-.48.76a5.5,5.5,0,0,1-.35.5l-.42-.32c.09-.13.2-.31.35-.55s.31-.51.5-.81.4-.61.64-.92a5.89,5.89,0,0,1,.79-.86,3.76,3.76,0,0,1,.92-.63,2.34,2.34,0,0,1,1.07-.25,2.5,2.5,0,0,1,1,.18,2.06,2.06,0,0,1,1.21,1.26,2.87,2.87,0,0,1,.17,1,5.11,5.11,0,0,1-.28,1.62,7,7,0,0,1-.74,1.56,8,8,0,0,1-1.09,1.37A7.59,7.59,0,0,1,328.12,205.27Zm-2.93,6.28c.24-.3.48-.61.72-.94s.46-.67.66-1a10.3,10.3,0,0,0,.56-1,6,6,0,0,0,.39-1l-1.69,1a27.33,27.33,0,0,0-2.51,1.53,16.6,16.6,0,0,0-1.7,1.34,9.49,9.49,0,0,0-1.06,1.11,5.81,5.81,0,0,0-.57.88,2.71,2.71,0,0,0-.23.62c0,.17,0,.29,0,.36a1.86,1.86,0,0,0,0,.33.81.81,0,0,0,.13.3.75.75,0,0,0,.26.2.89.89,0,0,0,.43.08,2,2,0,0,0,.7-.16,4.15,4.15,0,0,0,1-.58,13.91,13.91,0,0,0,1.29-1.14C324,212.92,324.59,212.3,325.19,211.55Zm1.95-6.49a1.39,1.39,0,0,0-.35-.16,1.32,1.32,0,0,0-.31-.05c-.33,0-.49.08-.49.22s.14.22.42.22a2,2,0,0,0,.34,0A1.38,1.38,0,0,0,327.14,205.06Z" style="fill:#fff"></path><polygon points="177.81 117.39 175.87 153.3 207.29 152.09 199.56 117.39 177.81 117.39" style="fill:#00764B"></polygon><path d="M190,144.32a8.82,8.82,0,1,1,9-8.82C199,140.69,195.29,144.32,190,144.32Zm0-16.63a7.52,7.52,0,0,0-7.9,7.81,7.41,7.41,0,0,0,7.85,7.82,7.56,7.56,0,0,0,8-7.82C198,130.83,194.8,127.69,190.07,127.69ZM190,140c-1.76,0-3.81-1.19-3.81-4.53s2.08-4.52,3.86-4.52,3.86,1.4,3.86,4.52S192,140,190,140Zm0-8.05c-1.38,0-2.86.92-2.86,3.52,0,2.18,1.08,3.53,2.81,3.53,1.34,0,2.91-.92,2.91-3.53S191.39,132,190.07,132Z" style="fill:#fff"></path><polygon points="142.5 122.19 140.38 159.15 172.34 155.26 162.38 112.96 142.5 122.19" style="fill:#00764B"></polygon><polygon points="142.5 122.19 140.38 159.15 172.34 155.26 162.38 112.96 142.5 122.19" style="fill:#fff;opacity:0.35000000000000003"></polygon><path d="M146.35,143.45q0-1.15.15-2.67c.09-1,.21-2,.35-3.09s.29-2.05.47-3,.34-1.79.51-2.48a2.64,2.64,0,0,1,.74-1.35,2.06,2.06,0,0,1,1.5-.55,1.44,1.44,0,0,1,1.31.58,2.81,2.81,0,0,1,.37,1.54c0,.18,0,.42-.05.71s-.08.63-.13,1-.11.73-.17,1.11-.11.73-.17,1-.09.6-.13.84,0,.4,0,.48h.35l.33-.62.53-1c.2-.37.41-.77.64-1.18s.44-.81.64-1.19.37-.72.54-1,.28-.51.37-.65a3.2,3.2,0,0,1,1.28-1.3,3.57,3.57,0,0,1,1.59-.35,1.62,1.62,0,0,1,1.39.74,3.45,3.45,0,0,1,.52,2,4.76,4.76,0,0,1-.08.65c-.05.3-.12.67-.2,1.09s-.17.88-.27,1.38-.19,1-.28,1.54-.14,1.05-.2,1.56-.08,1-.08,1.42a4.75,4.75,0,0,0,.28,1.78c.18.47.46.7.85.7a1.55,1.55,0,0,0,.6-.15,7.19,7.19,0,0,0,.74-.41,9.6,9.6,0,0,0,.8-.59l.82-.68c.61-.55,1.26-1.17,1.94-1.86l.3,3.92-.88.67-1.46,1.08a12.61,12.61,0,0,1-1.55,1,10.27,10.27,0,0,1-1.68.7,6.25,6.25,0,0,1-1.84.27c-.64,0-1.18-.47-1.62-1.39a9.87,9.87,0,0,1-.66-4.08,20.57,20.57,0,0,1,.14-2.26c.1-.82.21-1.69.35-2.62H155l-4.59,9.1a2.29,2.29,0,0,1-.78,1,2,2,0,0,1-1,.26,2,2,0,0,1-1.16-.31,2,2,0,0,1-.67-.82,4.17,4.17,0,0,1-.32-1.18A11.8,11.8,0,0,1,146.35,143.45Z" style="fill:#263238"></path><polygon points="379.31 120.5 376.34 158.9 414.46 158.9 406.74 120.5 379.31 120.5" style="fill:#455a64"></polygon><path d="M396.18,142.47a.43.43,0,0,1,.3-.21.31.31,0,0,1,.29,0,.36.36,0,0,1,.13.28,1.16,1.16,0,0,1-.15.54,18.86,18.86,0,0,1-1.49,2.32,26.18,26.18,0,0,1-1.94,2.34,15,15,0,0,1-2,1.79,2.64,2.64,0,0,1-3.17.34,3,3,0,0,1-1-.9,3.51,3.51,0,0,1-.49-1.18,3.69,3.69,0,0,1-.09-1.17c0-.3.09-.85.2-1.63s.27-1.69.45-2.72.41-2.13.64-3.31.49-2.31.75-3.41l-1,.12c-.32,0-.61,0-.88,0a6.79,6.79,0,0,1-1.71-.21,6.46,6.46,0,0,1-1.2-.41.31.31,0,0,1-.2-.33.93.93,0,0,1,.17-.42,1.37,1.37,0,0,1,.35-.37.68.68,0,0,1,.38-.15c.36,0,.75.07,1.16.09a12.08,12.08,0,0,0,1.36,0c.36,0,.71,0,1-.09s.65-.08,1-.14c.25-.9.49-1.69.72-2.36a6.11,6.11,0,0,1,.64-1.4.63.63,0,0,1,.38-.24,2.6,2.6,0,0,1,.64-.14,2.36,2.36,0,0,1,.65,0,.64.64,0,0,1,.45.21,2.51,2.51,0,0,1,.12,1.16,16.72,16.72,0,0,1-.31,2.38,16.31,16.31,0,0,1,2.1.12,15.58,15.58,0,0,1,1.57.29,6.52,6.52,0,0,1,1.05.31l.6.21a.28.28,0,0,1,.21.28,1,1,0,0,1-.09.47.91.91,0,0,1-.32.41.61.61,0,0,1-.51.11,4.53,4.53,0,0,1-.64-.11,6.83,6.83,0,0,0-.85-.14c-.33,0-.72-.08-1.17-.11s-1-.06-1.59-.06h-.38l-.44,0-.21.89c-.07.29-.16.6-.27.92-.24.75-.53,1.57-.85,2.46s-.62,1.66-1,2.66-.84,2.07-1.33,3.2a4.17,4.17,0,0,0,.05,1.85,2.08,2.08,0,0,0,.52.92,1.46,1.46,0,0,0,.9.34,1.67,1.67,0,0,0,1-.3,7.89,7.89,0,0,0,1.26-.94c.43-.4.87-.83,1.31-1.31s.86-.93,1.23-1.38.71-.87,1-1.23Z" style="fill:#fff"></path><polygon points="370.06 293.72 372.95 256.28 335.77 256.28 343.31 293.72 370.06 293.72" style="fill:#00764B"></polygon><polygon points="370.06 293.72 372.95 256.28 335.77 256.28 343.31 293.72 370.06 293.72" style="fill:#fff;opacity:0.35000000000000003"></polygon><path d="M353.6,264.75a4.07,4.07,0,0,1,.62-2.24,5.42,5.42,0,0,1,1.6-1.6,7.39,7.39,0,0,1,2.22-1,9.84,9.84,0,0,1,2.44-.31,8.83,8.83,0,0,1,1.95.21,5.54,5.54,0,0,1,1.63.63,3.53,3.53,0,0,1,1.12,1,2.59,2.59,0,0,1,.42,1.47,7.26,7.26,0,0,1-.44,2.64,6.69,6.69,0,0,1-1.16,2,7.87,7.87,0,0,1-1.67,1.47,21.34,21.34,0,0,1-2,1.13c.51.38,1,.78,1.49,1.2a9.94,9.94,0,0,1,1.28,1.32,6.25,6.25,0,0,1,.89,1.51,4.55,4.55,0,0,1,.33,1.75,4.87,4.87,0,0,1-.5,2.23,5.13,5.13,0,0,1-1.38,1.73,6.46,6.46,0,0,1-2.09,1.13,8.32,8.32,0,0,1-2.65.41,11.15,11.15,0,0,1-2.1-.21,5.83,5.83,0,0,1-2-.78,4.41,4.41,0,0,1-1.48-1.55,4.8,4.8,0,0,1-.59-2.54A6.37,6.37,0,0,1,352,274a6.75,6.75,0,0,1,1.08-1.84,8.31,8.31,0,0,1,1.52-1.44c.57-.42,1.16-.82,1.75-1.19a5.69,5.69,0,0,1-2.73-4.82Zm6.27,10.33a2.81,2.81,0,0,0-.43-1.56,7.62,7.62,0,0,0-1-1.27,10.14,10.14,0,0,0-1.27.68,5.24,5.24,0,0,0-1,.82,3.62,3.62,0,0,0-.66,1,3.28,3.28,0,0,0-.24,1.28,2.64,2.64,0,0,0,.17,1,2.17,2.17,0,0,0,.43.71,1.69,1.69,0,0,0,.57.44,1.45,1.45,0,0,0,.62.15,2.91,2.91,0,0,0,1-.2,2.78,2.78,0,0,0,.93-.61,3.13,3.13,0,0,0,.65-1A3.66,3.66,0,0,0,359.87,275.08Zm-.12-13.29a2.83,2.83,0,0,0-1,.17,2.35,2.35,0,0,0-.81.48,2.19,2.19,0,0,0-.54.76,2.34,2.34,0,0,0-.2,1,5.54,5.54,0,0,0,.09,1,6.5,6.5,0,0,0,.29,1,7.39,7.39,0,0,0,.47,1,4.24,4.24,0,0,0,.63.86,5.73,5.73,0,0,0,1.15-.93,9.27,9.27,0,0,0,1-1.2,6.62,6.62,0,0,0,.7-1.26,2.94,2.94,0,0,0,.26-1.14,1.56,1.56,0,0,0-.17-.77,1.59,1.59,0,0,0-.47-.53,2,2,0,0,0-.66-.31A2.5,2.5,0,0,0,359.75,261.79Z" style="fill:#263238"></path><polygon points="296.88 251.32 295.25 287.79 329.05 283.65 325.15 247.43 296.88 251.32" style="fill:#00764B"></polygon><polygon points="296.88 251.32 295.25 287.79 329.05 283.65 325.15 247.43 296.88 251.32" style="opacity:0.25"></polygon><path d="M310.08,267.94c.41,0,.84,0,1.25.05a49.58,49.58,0,0,1,5.1-7.18,11.88,11.88,0,0,0-3.77-.76c-1.8,0-3,.73-3.45,2.09a3.59,3.59,0,0,1-2.92-2.52,3.83,3.83,0,0,1,3.85-2.12c2.2,0,5.07,1.25,7.19,2.32.4-.43.78-.87,1.21-1.27a4.32,4.32,0,0,1,2.29,2.46c-2.32,1.22-4.55,4.14-6.29,7.59a6.5,6.5,0,0,1,3.83,2.64l-.2.2a14.2,14.2,0,0,0-4.41-1.19,28.09,28.09,0,0,0-2.61,10.46c-1.76-.31-3.36-1.15-3.82-2,.06-2.15,1.13-5.34,2.9-8.76a29.61,29.61,0,0,0-3.92.24c0-.06,0,0,0-.12a3.16,3.16,0,0,1,1.13-1.91A15.84,15.84,0,0,1,310.08,267.94Z" style="fill:#fff"></path><polygon points="263.75 253.99 264.44 289.98 292.89 289.98 291.61 249.62 263.75 253.99" style="fill:#455a64"></polygon><path d="M279.78,280a7.42,7.42,0,0,1-2.93-.6,6.79,6.79,0,0,1-2.42-1.83,8.85,8.85,0,0,1-1.61-3,13.45,13.45,0,0,1-.58-4.13,12.21,12.21,0,0,1,.34-2.89,13.42,13.42,0,0,1,1-2.75,15,15,0,0,1,1.53-2.51,15.3,15.3,0,0,1,2-2.16,13.93,13.93,0,0,1,2.42-1.72,13.62,13.62,0,0,1,2.75-1.17l.42-.13.63,1.36-.42.22a8.38,8.38,0,0,0-2.06,1.51,7.4,7.4,0,0,0-1.37,1.92,10.12,10.12,0,0,0-.83,2.34c-.12.51-.21,1-.29,1.6a5.33,5.33,0,0,1,.71-.38,5.83,5.83,0,0,1,1.18-.38,5.54,5.54,0,0,1,3.15.18,4.9,4.9,0,0,1,1.8,1.13,6.17,6.17,0,0,1,1.4,2.12,8.52,8.52,0,0,1,.55,3.28,9.25,9.25,0,0,1-.59,3.4,7.63,7.63,0,0,1-1.61,2.52,6.81,6.81,0,0,1-2.37,1.55A7.72,7.72,0,0,1,279.78,280Zm1.05-21.14c-.28.13-.55.27-.82.42a13.45,13.45,0,0,0-2.25,1.6,14.38,14.38,0,0,0-1.88,2,12.9,12.9,0,0,0-2.33,4.88,11.86,11.86,0,0,0-.31,2.66,12.45,12.45,0,0,0,.53,3.82,8,8,0,0,0,1.43,2.67,5.58,5.58,0,0,0,2.05,1.55,6.64,6.64,0,0,0,5,.06,5.75,5.75,0,0,0,2-1.32,6.53,6.53,0,0,0,1.39-2.18,8.12,8.12,0,0,0,.52-3,7.66,7.66,0,0,0-.47-2.89,5.2,5.2,0,0,0-1.17-1.78,4,4,0,0,0-1.43-.92,4.57,4.57,0,0,0-2.62-.15,4.92,4.92,0,0,0-1.75.76l-.15.11a2.58,2.58,0,0,1,2.2.3,3.34,3.34,0,0,1,.93,1.13,6.57,6.57,0,0,1,.61,1.76,11.54,11.54,0,0,1,.22,2.42,17.82,17.82,0,0,1-.14,2.29,8.61,8.61,0,0,1-.43,1.81,3.53,3.53,0,0,1-.75,1.27,1.7,1.7,0,0,1-1.24.54c-1,0-1.72-.77-2.2-2.29a20.77,20.77,0,0,1-.63-6v-1.17c0-.3,0-.59,0-.88h0l.09-1.25a19.65,19.65,0,0,1,.44-2.89,11.26,11.26,0,0,1,.91-2.56,8.48,8.48,0,0,1,1.54-2.17A8.72,8.72,0,0,1,280.83,258.83Zm-2.67,9.54c0,.28,0,.56,0,.85v1.16a20.32,20.32,0,0,0,.58,5.66c.33,1.06.75,1.59,1.25,1.59a.7.7,0,0,0,.52-.24,2.57,2.57,0,0,0,.54-.92,7.91,7.91,0,0,0,.37-1.6,15.72,15.72,0,0,0,.13-2.15,10.22,10.22,0,0,0-.2-2.21,5.83,5.83,0,0,0-.51-1.5,2.4,2.4,0,0,0-.64-.79,1,1,0,0,0-.61-.22,2.47,2.47,0,0,0-.95.14A3.54,3.54,0,0,0,278.16,268.37Z" style="fill:#fff"></path><polygon points="223.69 254.34 219.07 289.37 254.13 289.37 251.16 252.66 223.69 254.34" style="fill:#00764B"></polygon><polygon points="223.69 254.34 219.07 289.37 254.13 289.37 251.16 252.66 223.69 254.34" style="fill:#fff;opacity:0.35000000000000003"></polygon><path d="M238.94,274.82c0-2.38-1.07-4.52-3.88-4.52a15.23,15.23,0,0,0-2.67.32c.41-2.7,2.5-9.42,3-11.42a12.45,12.45,0,0,0,3.07.38A21.08,21.08,0,0,0,243,259a2.9,2.9,0,0,1,.12.78c0,1.68-1.92,2.17-3.57,2.17-1.45,0-2.43-.37-3.16-.37-.34,0-.43.08-.66.58a77.42,77.42,0,0,0-2.2,7.62,11.58,11.58,0,0,1,2.52-.29c3.91,0,5.73,2.35,5.73,5.47a7.36,7.36,0,0,1-7.67,7.42c-3.77,0-4.9-2.31-4.9-4.08,0-1.51.81-3.16,2.35-3.16a2.91,2.91,0,0,1,.52,0,4,4,0,0,0-.93,2.81c0,1.74.78,3.48,3,3.48C237.15,281.46,238.94,277.92,238.94,274.82Z" style="fill:#263238"></path><polygon points="383.25 253.13 380.36 290.58 417.54 290.58 410 253.13 383.25 253.13" style="fill:#455a64"></polygon><path d="M396,274.87c0,1.1.37,1.68,1.33,1.68,1.56,0,2.06-1.77,2.55-4.58a5.22,5.22,0,0,1-4,1.74c-3.59,0-5.74-2.23-4.95-6.66a8.36,8.36,0,0,1,8.72-7.13c6.55,0,7.33,4.37,6.29,10.34-1.28,7.22-3.86,11.42-9.48,11.42-4.95,0-6.81-3.39-6.43-6.81Zm4.31-7.74c.21-1.19-.37-1.71-1.42-1.71a1.85,1.85,0,0,0-2,1.71c-.21,1.07.4,1.65,1.41,1.65A1.92,1.92,0,0,0,400.33,267.13Z" style="fill:#fff"></path><polygon points="422.77 121.17 421.02 163.8 457.42 161.82 450.69 121.17 422.77 121.17" style="fill:#00764B"></polygon><polygon points="422.77 121.17 421.02 163.8 457.42 161.82 450.69 121.17 422.77 121.17" style="fill:#fff;opacity:0.35000000000000003"></polygon><path d="M432.65,148.4c0,3,.81,4.29,3,4.29,2.5,0,4.32-1.88,6-4.95,2.18-4,3.05-9.8,3.05-14.52a16.28,16.28,0,0,0-.12-2.49,9.74,9.74,0,0,1,2.9.75c-.38,5.85-2.15,12.87-4.93,17.39-2,3.3-4.49,5.3-8,5.3s-5.62-2.09-5.62-6.26c0-4.87,2.35-12.78,5-17.56a8.37,8.37,0,0,1,4.43,1.88A30,30,0,0,0,432.65,148.4Z" style="fill:#263238"></path><polygon points="145.03 193.18 145.73 229.16 174.17 229.16 172.9 188.8 145.03 193.18" style="fill:#37474f"></polygon><path d="M159.38,202.76l.81,10.23,4.44-10.23h6.83l-8.34,16.34h-8l-2.55-16.34Z" style="fill:#fff"></path><polygon points="261.26 188.28 227.17 189.97 227.17 226.94 262.73 226.94 261.26 188.28" style="fill:#00764B"></polygon><path d="M241.92,207.52c-.07-.51-.16-1-.26-1.6s-.23-1.11-.37-1.66a12.58,12.58,0,0,0-.53-1.57,6.37,6.37,0,0,0-.73-1.32,3.4,3.4,0,0,0-1-.9,2.23,2.23,0,0,0-1.23-.34c-.05,0-.17.08-.36.25a6.28,6.28,0,0,0-.65.68c-.24.29-.49.62-.76,1a12,12,0,0,0-.73,1.2c-.14.28-.28.41-.41.41a.33.33,0,0,1-.26-.18,2,2,0,0,1-.22-.48,6.48,6.48,0,0,1-.17-.64q-.08-.36-.12-.69c0-.23-.06-.43-.08-.62a4.39,4.39,0,0,1,0-.44,5.06,5.06,0,0,1,.28-1.77,3.35,3.35,0,0,1,.77-1.25,3.2,3.2,0,0,1,1.16-.74,4.18,4.18,0,0,1,1.44-.24,8.34,8.34,0,0,1,1.4.11,5.78,5.78,0,0,1,1.41.41,5.87,5.87,0,0,1,1.38.89,6.77,6.77,0,0,1,1.28,1.51,12.75,12.75,0,0,1,1.12,2.28,21.71,21.71,0,0,1,.9,3.2c.45-.68.92-1.35,1.42-2s1-1.3,1.54-1.9,1-1.17,1.54-1.69,1-1,1.46-1.34a7.76,7.76,0,0,1,1.3-.89,2.29,2.29,0,0,1,1.06-.33,1.21,1.21,0,0,1,.78.31,2.7,2.7,0,0,1,.61.81,4.71,4.71,0,0,1,.39,1.15,6.31,6.31,0,0,1,.14,1.3,2.56,2.56,0,0,1-.73,2,2.68,2.68,0,0,1-1.88.66c-.09,0-.15-.05-.19-.16a1.3,1.3,0,0,1-.07-.39c0-.15,0-.32,0-.51a4.5,4.5,0,0,0,0-.52,2,2,0,0,0-.07-.39c0-.1-.1-.16-.18-.16a1.24,1.24,0,0,0-.67.29,6.16,6.16,0,0,0-.87.77c-.32.33-.67.72-1,1.17s-.76.93-1.15,1.45-.79,1.07-1.19,1.64-.79,1.13-1.17,1.7c.29,1.1.53,2.12.72,3.05s.37,1.78.53,2.53.3,1.42.45,2a7,7,0,0,0,.52,1.44,2.33,2.33,0,0,0,.73.88,1.9,1.9,0,0,0,1.1.3,3.09,3.09,0,0,0,1.86-.83,11.68,11.68,0,0,0,2.26-2.7.62.62,0,0,1,.46-.21.87.87,0,0,1,.47.15,2,2,0,0,1,.42.4,2.28,2.28,0,0,1,.3.53,1.54,1.54,0,0,1,.12.58,1,1,0,0,1-.31.73,16.79,16.79,0,0,1-1.83,1.91,14.46,14.46,0,0,1-1.8,1.38,8.55,8.55,0,0,1-1.69.84,4.46,4.46,0,0,1-1.47.28,5.42,5.42,0,0,1-1.39-.16,2.88,2.88,0,0,1-1.12-.56,4,4,0,0,1-.94-1.13,10.41,10.41,0,0,1-.84-1.84,26.66,26.66,0,0,1-.8-2.69c-.27-1.06-.55-2.29-.86-3.71l-2.77,4.16L239.23,217l-1.07,1.58-.89,1.32-.64.92a2.35,2.35,0,0,1-.94.73,3,3,0,0,1-1.28.28,2.22,2.22,0,0,1-1.41-.38,1.21,1.21,0,0,1-.47-1,2.62,2.62,0,0,1,.64-1.57l.83-1c.35-.45.76-.95,1.21-1.51s.94-1.15,1.46-1.79l1.54-1.89c.52-.62,1-1.21,1.46-1.78l1.23-1.5.85-1,.29-.37Z" style="fill:#fff"></path></g><g id="freepik--Plant--inject-58"><path d="M111.2,340.71C101.32,354.09,91,369.62,88.51,386.4a.23.23,0,0,0,.44.08,98.87,98.87,0,0,1,4.37-13.43c6.49-1.79,12.87-3.26,16.28-9.71,3.48-6.62,3-15.26,2.37-22.48C111.93,340.47,111.4,340.45,111.2,340.71Z" style="fill:#00764B"></path><path d="M93.41,372.92c4.44-10,10.14-20,17.38-28.15,0,0,.13,0,.08.08C106.13,350.68,102.53,357,99,363.5c3.27-3.32,6.85-6.3,9.95-9.82.06-.07.16,0,.1.1-3.07,3.69-6.43,7.71-10.44,10.44-1.08,2-2.16,4-3.26,6,.27-.15.55-.28.82-.42,0,0,.09.05,0,.07-.31.16-.61.32-.93.45-.52.94-1,1.89-1.57,2.83C93.61,373.31,93.32,373.13,93.41,372.92Z" style="fill:#263238"></path><path d="M96.72,369.45a58.2,58.2,0,0,0,7.58-5.07c.06-.05.16,0,.09.1a39.79,39.79,0,0,1-7.57,5.15A.1.1,0,1,1,96.72,369.45Z" style="fill:#263238"></path><path d="M87.37,383.9a.18.18,0,0,0,.36,0c0-5.53,0-11.08.09-16.63,1.41-2.86,4.45-4.44,6.57-6.73A29.52,29.52,0,0,0,98.33,355a39.52,39.52,0,0,0,4.57-15.24c.58-5.91-1.66-25.41-4.15-24.74-1.3.36-5.48,10-6.59,13.21a92.78,92.78,0,0,0-3.93,16.19C86.21,357.46,86.38,370.82,87.37,383.9Z" style="fill:#00764B"></path><path d="M87.33,360.07l0,0c.31-7,1.88-14.05,3.36-20.83,1.59-7.3,3.44-14.18,7.2-20.7.07-.12.25,0,.19.11a76.66,76.66,0,0,0-5.79,15.89c.25-.4.56-.77.82-1.14.1-.15.34,0,.24.14a10.78,10.78,0,0,1-1.17,1.66.06.06,0,0,1,0,0c-1.29,5.22-2.22,10.56-3,15.89l.18-.2c0-.05.11,0,.08.06s-.21.35-.32.53c-.4,2.7-.77,5.4-1.14,8.08,4.81-4.12,8.92-9,11.24-14.95,0,0,.06,0,0,0-2.27,6.2-5.85,11.71-11.37,15.47l-.3,2.16c0,.15-.26.11-.26,0,0-.64,0-1.27.06-1.91A.15.15,0,0,1,87.33,360.07Z" style="fill:#263238"></path><path d="M89.6,349.94A112.48,112.48,0,0,0,99.41,333c0-.07.14,0,.12,0a54.92,54.92,0,0,1-9.75,17C89.69,350.18,89.52,350.05,89.6,349.94Z" style="fill:#263238"></path><path d="M94.49,331.68c1.52-2.69,3.13-5.32,4.56-8.07,0-.07.15,0,.12.07a42,42,0,0,1-4.45,8.14A.13.13,0,0,1,94.49,331.68Z" style="fill:#263238"></path><path d="M93.89,332.86a0,0,0,1,1,0,0A0,0,0,1,1,93.89,332.86Z" style="fill:#263238"></path><path d="M83.63,367.92a56.05,56.05,0,0,1-1.29,10.89c.06.39.11.79.17,1.19a52.13,52.13,0,0,0,1.95-12.13.37.37,0,0,0,0-.38h0A80.28,80.28,0,0,0,83.25,351c-1.71-10.16-5.45-19.9-12.53-27.51a.5.5,0,0,0-.78.16c-2.86,7.26-1.86,15.93.57,23.18a42.62,42.62,0,0,0,5.62,11C78.56,361.3,81.66,364.19,83.63,367.92Z" style="fill:#00764B"></path><path d="M71.56,326.93c6.71,10.89,11.38,23.8,12,36.67,0,.23-.37.29-.4.06-.16-1.16-.34-2.3-.52-3.45h0A44.29,44.29,0,0,1,75,351.42c0-.06.05-.13.09-.07a92.5,92.5,0,0,0,7.4,8q-.72-4.27-1.72-8.41c-.18-.2-.36-.41-.53-.62s.07-.33.2-.2l.16.18a97.93,97.93,0,0,0-3.51-11.14c-1.71-2-3.62-3.8-4.87-6.26,0-.06,0-.1.09-.05A49.93,49.93,0,0,0,75.38,337c.45.52,1,1,1.41,1.51a85.61,85.61,0,0,0-5.49-11.45A.15.15,0,0,1,71.56,326.93Z" style="fill:#263238"></path><path d="M72.92,340.36c2.17,2.92,4.64,5.71,6.65,8.73.06.08-.06.17-.14.1a44.68,44.68,0,0,1-6.66-8.74C72.71,340.35,72.85,340.28,72.92,340.36Z" style="fill:#263238"></path><path d="M79.88,349.76l.09.1a.07.07,0,1,1-.1.09l-.09-.09C79.71,349.8,79.81,349.7,79.88,349.76Z" style="fill:#263238"></path><path d="M61,347.87a33.36,33.36,0,0,0,7.09,16.61A17.58,17.58,0,0,0,73.87,369c2.49,1.23,5.09,2.64,7.66,3.65a50,50,0,0,1,2.72,9.64c.08-.28.16-.57.25-.85-1.65-14.19-10.84-26.32-22.58-34.1A.57.57,0,0,0,61,347.87Z" style="fill:#00764B"></path><path d="M65.1,352.06c-.08-.07,0-.22.12-.16a48.18,48.18,0,0,1,15,18.45c.08.19-.19.36-.3.17-.54-1-1.1-1.89-1.66-2.8h0c-2.68-.51-5.22-2.39-7.21-4.18-.06-.05,0-.13.08-.08a16.69,16.69,0,0,0,3.39,2.38c1.09.55,2.27.9,3.41,1.35-1-1.58-2-3.09-3.11-4.56a30.89,30.89,0,0,1-8.06-4.53.08.08,0,0,1,.08-.13,80.42,80.42,0,0,0,7.48,4A65.43,65.43,0,0,0,69,355.81c-.91-.48-1.84-1-2.72-1.48a.07.07,0,0,1,.06-.13,9.54,9.54,0,0,1,2.08,1C67.36,354.15,66.27,353.09,65.1,352.06Z" style="fill:#263238"></path><path d="M65.35,357a2.83,2.83,0,0,1,.45.32s0,.09,0,.07a2.77,2.77,0,0,1-.48-.26C65.19,357,65.27,356.91,65.35,357Z" style="fill:#263238"></path><polygon points="102.83 412.99 70.64 412.99 73.24 383.69 73.81 377.22 99.66 377.22 100.23 383.69 102.83 412.99" style="fill:#455a64"></polygon><polygon points="100.23 383.69 73.24 383.69 73.81 377.22 99.66 377.22 100.23 383.69" style="fill:#263238"></polygon><rect x="72.27" y="372.7" width="28.93" height="6.4" style="fill:#455a64"></rect></g></svg>